<svg width="800" height="546" viewBox="0 0 800 546" fill="none" xmlns="http://www.w3.org/2000/svg">
<path fill-rule="evenodd" clip-rule="evenodd" d="M0.534424 545.102V0.211426H148.464V213.059H344.284V0.211426H492.213V78.5086C460.578 99.9935 439.795 136.263 439.795 177.386C439.795 202.962 447.834 226.661 461.523 246.093L393.452 314.164L419.795 340.507L487.448 272.854C489.007 274.028 490.596 275.165 492.213 276.263V545.102H344.284V332.254H148.464V545.102H0.534424Z" fill="#2374E1"/>
<path fill-rule="evenodd" clip-rule="evenodd" d="M343.923 545.102V0.211426H579.12C619.561 0.211426 654.947 7.57242 685.278 22.2944C715.609 37.0164 739.199 58.2125 756.05 85.8828C772.9 113.553 781.326 146.722 781.326 185.389C781.326 224.411 772.634 257.314 755.252 284.097C739.192 309.097 717.029 328.379 688.761 341.943L799.418 545.102H638.717L543.049 365.246H491.852V545.102H343.923ZM487.448 272.854L433.319 326.983L419.795 340.507L393.452 314.164L433.319 274.297L457.308 250.308L461.523 246.093C447.834 226.661 439.795 202.962 439.795 177.386C439.795 111.421 493.27 57.9465 559.234 57.9465C625.199 57.9465 678.674 111.421 678.674 177.386C678.674 243.35 625.199 296.825 559.234 296.825C532.291 296.825 507.431 287.904 487.448 272.854Z" fill="#EF9D3A"/>
<path fill-rule="evenodd" clip-rule="evenodd" d="M653.212 178.088C653.212 230.437 610.775 272.874 558.426 272.874C506.077 272.874 463.64 230.437 463.64 178.088C463.64 125.739 506.077 83.3022 558.426 83.3022C610.775 83.3022 653.212 125.739 653.212 178.088ZM670.212 178.088C670.212 239.826 620.164 289.874 558.426 289.874C529.944 289.874 503.95 279.223 484.211 261.686L417.874 328.189L405.838 316.184L472.39 249.465C456.309 230.102 446.64 205.225 446.64 178.088C446.64 116.351 496.688 66.3022 558.426 66.3022C620.164 66.3022 670.212 116.351 670.212 178.088Z" fill="#E23CB3"/>
</svg>
